<?xml version="1.0" encoding="UTF-8"?>
<svg xmlns="http://www.w3.org/2000/svg" viewBox="0 0 1280 640" role="img" aria-label="learning/runtime — Self-learning is a superpower. A Model Context Protocol server that turns your AI into a super-intelligent tutor.">
  <title>learning/runtime — Self-learning is a superpower.</title>
  <defs>
    <style>
      .mono { font-family: ui-monospace, "JetBrains Mono", "Cascadia Mono", "SFMono-Regular", Menlo, Consolas, monospace; }
      .sans { font-family: system-ui, -apple-system, "Inter Tight", "Segoe UI", Roboto, sans-serif; }
      .serif { font-family: "Instrument Serif", Georgia, "Times New Roman", serif; font-style: italic; }
    </style>
    <radialGradient id="glow1" cx="100%" cy="0%" r="80%" fx="100%" fy="0%">
      <stop offset="0%" stop-color="#e8804a" stop-opacity="0.36"/>
      <stop offset="60%" stop-color="#e8804a" stop-opacity="0"/>
    </radialGradient>
    <radialGradient id="glow2" cx="0%" cy="100%" r="65%" fx="0%" fy="100%">
      <stop offset="0%" stop-color="#e8804a" stop-opacity="0.20"/>
      <stop offset="60%" stop-color="#e8804a" stop-opacity="0"/>
    </radialGradient>
    <pattern id="grid" x="0" y="0" width="64" height="64" patternUnits="userSpaceOnUse">
      <path d="M 64 0 L 0 0 0 64" fill="none" stroke="#f5ede5" stroke-opacity="0.04" stroke-width="1"/>
    </pattern>
    <radialGradient id="gridmask" cx="50%" cy="50%" r="58%">
      <stop offset="30%" stop-color="#ffffff"/>
      <stop offset="100%" stop-color="#000000"/>
    </radialGradient>
    <mask id="gm" maskUnits="userSpaceOnUse" x="0" y="0" width="1280" height="640">
      <rect width="1280" height="640" fill="url(#gridmask)"/>
    </mask>
    <radialGradient id="orb" cx="50%" cy="50%" r="50%">
      <stop offset="0%" stop-color="#e8804a"/>
      <stop offset="100%" stop-color="#da6e38"/>
    </radialGradient>
  </defs>

  <!-- background -->
  <rect width="1280" height="640" fill="#0c0908"/>
  <rect width="1280" height="640" fill="url(#grid)" mask="url(#gm)"/>
  <rect width="1280" height="640" fill="url(#glow1)"/>
  <rect width="1280" height="640" fill="url(#glow2)"/>

  <!-- EYEBROW -->
  <g>
    <line x1="88" y1="80" x2="112" y2="80" stroke="#f5ede5" stroke-opacity="0.4" stroke-width="1"/>
    <text x="126" y="84" class="mono" font-size="12" letter-spacing="2.6" fill="#f5ede5" fill-opacity="0.5">OPEN SOURCE  ·  MODEL CONTEXT PROTOCOL</text>
  </g>

  <!-- HERO: neural-net logo + wordmark, centered in 128px row -->
  <g transform="translate(88 110)">
    <g transform="translate(0 0) scale(1.28)">
      <g stroke="#f5ede5" stroke-width="1.2" stroke-linecap="round" stroke-opacity="0.5" fill="none">
        <line x1="26" y1="24" x2="50" y2="56"/>
        <line x1="72" y1="18" x2="50" y2="56"/>
        <line x1="82" y1="46" x2="50" y2="56"/>
        <line x1="68" y1="78" x2="50" y2="56"/>
        <line x1="22" y1="70" x2="50" y2="56"/>
        <line x1="44" y1="44" x2="50" y2="56"/>
      </g>
      <circle cx="26" cy="24" r="3.6" fill="#f5ede5"/>
      <circle cx="72" cy="18" r="2.6" fill="#f5ede5"/>
      <circle cx="82" cy="46" r="3.6" fill="#f5ede5"/>
      <circle cx="68" cy="78" r="3.6" fill="#f5ede5"/>
      <circle cx="22" cy="70" r="3.6" fill="#f5ede5"/>
      <circle cx="44" cy="44" r="3.6" fill="#f5ede5"/>
      <circle cx="50" cy="56" r="22" fill="none" stroke="#e8804a" stroke-opacity="0.10" stroke-width="1"/>
      <circle cx="50" cy="56" r="14" fill="none" stroke="#e8804a" stroke-opacity="0.22" stroke-width="1.2"/>
      <circle cx="50" cy="56" r="9" fill="url(#orb)"/>
    </g>
    <text x="164" y="86" class="sans" font-size="56" font-weight="700" letter-spacing="-2.24" fill="#f5ede5">learning<tspan fill="#f5ede5" fill-opacity="0.55" font-weight="400">/</tspan>runtime</text>
  </g>

  <!-- TAGLINE -->
  <text x="88" y="328" class="serif" font-size="64" letter-spacing="-1.28" fill="#f5ede5">Self-learning is a <tspan fill="#e8804a">superpower</tspan>.</text>

  <!-- PITCH -->
  <text x="88" y="392" class="sans" font-size="22" fill="#f5ede5" fill-opacity="0.85">
    <tspan x="88" dy="0" font-weight="600" fill="#f5ede5" fill-opacity="1">A Model Context Protocol server that turns your AI into a super-intelligent tutor.</tspan>
    <tspan x="88" dy="33">Tell it what you want to learn — and five cognitive-science algorithms decide</tspan>
    <tspan x="88" dy="33" fill="#f3a875" font-weight="500">what to study, when to review, and how hard the next exercise should be,</tspan>
    <tspan x="88" dy="33">until you don't need it anymore.</tspan>
  </text>

  <!-- FOOTER divider -->
  <line x1="88" y1="544" x2="1192" y2="544" stroke="#f5ede5" stroke-opacity="0.1" stroke-width="1"/>

  <!-- FOOTER LEFT: works with + provider logos -->
  <g transform="translate(88 580)">
    <text x="0" y="0" class="mono" font-size="12" letter-spacing="2.16" fill="#f5ede5" fill-opacity="0.55">WORKS WITH</text>
    <line x1="120" y1="-12" x2="120" y2="6" stroke="#f5ede5" stroke-opacity="0.18" stroke-width="1"/>

    <!-- Claude -->
    <g transform="translate(140 -16)">
      <svg x="0" y="0" width="22" height="22" viewBox="0 0 24 24">
        <path fill="#D97757" d="M4.709 15.955l4.72-2.647.08-.23-.08-.128H9.2l-.79-.048-2.698-.073-2.339-.097-2.266-.122-.571-.121L0 11.784l.055-.352.48-.321.686.06 1.52.103 2.278.158 1.652.097 2.449.255h.389l.055-.157-.134-.098-.103-.097-2.358-1.596-2.552-1.688-1.336-.972-.724-.491-.364-.462-.158-1.008.656-.722.881.06.225.061.893.686 1.908 1.476 2.491 1.833.365.304.145-.103.019-.073-.164-.274-1.355-2.446-1.446-2.49-.644-1.032-.17-.619a2.97 2.97 0 01-.104-.729L6.283.134 6.696 0l.996.134.42.364.62 1.414 1.002 2.229 1.555 3.03.456.898.243.832.091.255h.158V9.01l.128-1.706.237-2.095.23-2.695.08-.76.376-.91.747-.492.584.28.48.685-.067.444-.286 1.851-.559 2.903-.364 1.942h.212l.243-.242.985-1.306 1.652-2.064.73-.82.85-.904.547-.431h1.033l.76 1.129-.34 1.166-1.064 1.347-.881 1.142-1.264 1.7-.79 1.36.073.11.188-.02 2.856-.606 1.543-.28 1.841-.315.833.388.091.395-.328.807-1.969.486-2.309.462-3.439.813-.042.03.049.061 1.549.146.662.036h1.622l3.02.225.79.522.474.638-.079.485-1.215.62-1.64-.389-3.829-.91-1.312-.329h-.182v.11l1.093 1.068 2.006 1.81 2.509 2.33.127.578-.322.455-.34-.049-2.205-1.657-.851-.747-1.926-1.62h-.128v.17l.444.649 2.345 3.521.122 1.08-.17.353-.608.213-.668-.122-1.374-1.925-1.415-2.167-1.143-1.943-.14.08-.674 7.254-.316.37-.729.28-.607-.461-.322-.747.322-1.476.389-1.924.315-1.53.286-1.9.17-.632-.012-.042-.14.018-1.434 1.967-2.18 2.945-1.726 1.845-.414.164-.717-.37.067-.662.401-.589 2.388-3.036 1.44-1.882.93-1.086-.006-.158h-.055L4.132 18.56l-1.13.146-.487-.456.061-.746.231-.243 1.908-1.312-.006.006z"/>
      </svg>
      <text x="30" y="16" class="sans" font-size="17" font-weight="600" letter-spacing="-0.17" fill="#f5ede5">Claude</text>
    </g>

    <!-- ChatGPT -->
    <g transform="translate(248 -16)">
      <svg x="0" y="0" width="22" height="22" viewBox="0 0 24 24">
        <path fill="#10A37F" d="M22.282 9.821a5.985 5.985 0 0 0-.516-4.91 6.046 6.046 0 0 0-6.51-2.9A6.065 6.065 0 0 0 4.981 4.18a5.985 5.985 0 0 0-3.998 2.9 6.046 6.046 0 0 0 .743 7.097 5.98 5.98 0 0 0 .51 4.911 6.05 6.05 0 0 0 6.515 2.9A5.985 5.985 0 0 0 13.26 24a6.056 6.056 0 0 0 5.772-4.206 5.99 5.99 0 0 0 3.997-2.9 6.056 6.056 0 0 0-.747-7.073zM13.26 22.43a4.476 4.476 0 0 1-2.876-1.04l.141-.081 4.779-2.758a.795.795 0 0 0 .392-.681v-6.737l2.02 1.168a.071.071 0 0 1 .038.052v5.583a4.504 4.504 0 0 1-4.494 4.494zM3.6 18.304a4.47 4.47 0 0 1-.535-3.014l.142.085 4.783 2.759a.771.771 0 0 0 .78 0l5.843-3.369v2.332a.08.08 0 0 1-.033.062L9.74 19.95a4.5 4.5 0 0 1-6.14-1.646zM2.34 7.896a4.485 4.485 0 0 1 2.366-1.973V11.6a.766.766 0 0 0 .388.676l5.815 3.355-2.02 1.168a.076.076 0 0 1-.071 0l-4.83-2.786A4.504 4.504 0 0 1 2.34 7.872zm16.597 3.855-5.833-3.387L15.119 7.2a.076.076 0 0 1 .071 0l4.83 2.791a4.494 4.494 0 0 1-.676 8.105v-5.678a.79.79 0 0 0-.407-.667zm2.01-3.023-.141-.085-4.774-2.782a.776.776 0 0 0-.785 0L9.409 9.23V6.897a.066.066 0 0 1 .028-.061l4.83-2.787a4.5 4.5 0 0 1 6.68 4.66zm-12.64 4.135-2.02-1.164a.08.08 0 0 1-.038-.057V6.075a4.5 4.5 0 0 1 7.375-3.453l-.142.08L8.704 5.46a.795.795 0 0 0-.393.681zm1.097-2.365 2.602-1.5 2.607 1.5v2.999l-2.597 1.5-2.607-1.5z"/>
      </svg>
      <text x="30" y="16" class="sans" font-size="17" font-weight="600" letter-spacing="-0.17" fill="#f5ede5">ChatGPT</text>
    </g>

    <!-- Gemini -->
    <g transform="translate(376 -16)">
      <svg x="0" y="0" width="22" height="22" viewBox="0 0 24 24">
        <path fill="#3186FF" d="M20.616 10.835a14.147 14.147 0 01-4.45-3.001 14.111 14.111 0 01-3.678-6.452.503.503 0 00-.975 0 14.134 14.134 0 01-3.679 6.452 14.155 14.155 0 01-4.45 3.001c-.65.28-1.318.505-2.002.678a.502.502 0 000 .975c.684.172 1.35.397 2.002.677a14.147 14.147 0 014.45 3.001 14.112 14.112 0 013.679 6.453.502.502 0 00.975 0c.172-.685.397-1.351.677-2.003a14.145 14.145 0 013.001-4.45 14.113 14.113 0 016.453-3.678.503.503 0 000-.975 13.245 13.245 0 01-2.003-.678z"/>
      </svg>
      <text x="30" y="16" class="sans" font-size="17" font-weight="600" letter-spacing="-0.17" fill="#f5ede5">Gemini</text>
    </g>

    <!-- Mistral -->
    <g transform="translate(486 -16)">
      <svg x="0" y="0" width="22" height="22" viewBox="0 0 24 24">
        <path fill="gold" d="M3.428 3.4h3.429v3.428H3.428V3.4zm13.714 0h3.43v3.428h-3.43V3.4z"/>
        <path fill="#FFAF00" d="M3.428 6.828h6.857v3.429H3.429V6.828zm10.286 0h6.857v3.429h-6.857V6.828z"/>
        <path fill="#FF8205" d="M3.428 10.258h17.144v3.428H3.428v-3.428z"/>
        <path fill="#FA500F" d="M3.428 13.686h3.429v3.428H3.428v-3.428zm6.858 0h3.429v3.428h-3.429v-3.428zm6.856 0h3.43v3.428h-3.43v-3.428z"/>
        <path fill="#E10500" d="M0 17.114h10.286v3.429H0v-3.429zm13.714 0H24v3.429H13.714v-3.429z"/>
      </svg>
      <text x="30" y="16" class="sans" font-size="17" font-weight="600" letter-spacing="-0.17" fill="#f5ede5">Mistral</text>
    </g>
  </g>

  <!-- FOOTER RIGHT: pills -->
  <g transform="translate(1192 580)">
    <!-- pills are right-aligned, so we'll position from right -->
    <!-- MCP · v1.0 (accent, with border) -->
    <g transform="translate(-110 -22)">
      <rect x="0" y="0" width="110" height="30" fill="none" stroke="#e8804a" stroke-opacity="0.55" stroke-width="1"/>
      <text x="55" y="20" class="mono" font-size="12" letter-spacing="0.72" text-anchor="middle" fill="#f3a875">MCP · v1.0</text>
    </g>
    <!-- SQLite -->
    <g transform="translate(-186 -22)">
      <rect x="0" y="0" width="68" height="30" fill="#ffffff" fill-opacity="0.06"/>
      <text x="34" y="20" class="mono" font-size="12" letter-spacing="0.72" text-anchor="middle" fill="#f5ede5">SQLite</text>
    </g>
    <!-- Go -->
    <g transform="translate(-228 -22)">
      <rect x="0" y="0" width="34" height="30" fill="#ffffff" fill-opacity="0.06"/>
      <text x="17" y="20" class="mono" font-size="12" letter-spacing="0.72" text-anchor="middle" fill="#f5ede5">Go</text>
    </g>
  </g>
</svg>
